<?xml version="1.0" encoding="utf-8"?>
<!-- Generator: Adobe Illustrator 25.1.0, SVG Export Plug-In . SVG Version: 6.00 Build 0)  -->
<svg version="1.1" id="Layer_1" xmlns="http://www.w3.org/2000/svg" xmlns:xlink="http://www.w3.org/1999/xlink" x="0px" y="0px"
	 viewBox="0 0 792 612" style="enable-background:new 0 0 792 612;" xml:space="preserve">
<style type="text/css">
	.st0{opacity:0.87;fill:#F2F2F3;}
	.st1{fill:none;}
	.st2{fill:#485C7B;}
	.st3{font-family:'SourceCodePro-Light';}
	.st4{font-size:55px;}
	.st5{letter-spacing:-1.43;}
	.st6{font-family:'SourceCodePro-ExtraLight';}
	.st7{font-size:48px;}
</style>
<g>
	<path class="st0" d="M579.98,396.5H212.02c-8.29,0-15.02-6.72-15.02-15.02V230.52c0-8.29,6.72-15.02,15.02-15.02h367.96
		c8.29,0,15.02,6.72,15.02,15.02v150.96C595,389.78,588.28,396.5,579.98,396.5z"/>
	<rect x="213" y="230.24" class="st1" width="366" height="151.52"/>
	<text transform="matrix(1 0 0 1 243.1685 300.0249)" class="st2 st3 st4">J</text>
	<text transform="matrix(0.7 0 0 0.7 276.168 300.0249)" class="st2 st3 st4">o</text>
	<text transform="matrix(0.7 0 0 0.7 299.2676 300.0249)" class="st2 st3 st4 st5">s</text>
	<text transform="matrix(0.7 0 0 0.7 321.1348 300.0249)" class="st2 st3 st4">h</text>
	<text transform="matrix(1 0 0 1 344.2344 300.0249)" class="st2 st3 st4"> C</text>
	<text transform="matrix(0.7 0 0 0.7 410.2324 300.0249)" class="st2 st3 st4">oronel</text>
	<text transform="matrix(1 0 0 1 241.9224 357.625)" class="st2 st6 st7">D</text>
	<text transform="matrix(0.7 0 0 0.7 270.7217 357.625)" class="st2 st6 st7">ata</text>
	<text transform="matrix(1 0 0 1 331.2012 357.625)" class="st2 st6 st7"> S</text>
	<text transform="matrix(0.7 0 0 0.7 388.8008 357.625)" class="st2 st6 st7">cientist</text>
</g>
</svg>
